<?xml version="1.0" encoding="UTF-8" standalone="no"?>
<!-- Created with Inkscape (http://www.inkscape.org/) -->

<svg
   xmlns:dc="http://purl.org/dc/elements/1.1/"
   xmlns:cc="http://creativecommons.org/ns#"
   xmlns:rdf="http://www.w3.org/1999/02/22-rdf-syntax-ns#"
   xmlns:svg="http://www.w3.org/2000/svg"
   xmlns="http://www.w3.org/2000/svg"
   xmlns:xlink="http://www.w3.org/1999/xlink"
   xmlns:sodipodi="http://sodipodi.sourceforge.net/DTD/sodipodi-0.dtd"
   xmlns:inkscape="http://www.inkscape.org/namespaces/inkscape"
   width="1000"
   height="1000"
   id="svg2"
   version="1.1"
   inkscape:version="0.48.4 r9939"
   sodipodi:docname="logo.svg">
  <defs
     id="defs4">
    <linearGradient
       id="linearGradient5603">
      <stop
         style="stop-color:#000000;stop-opacity:0.45539907;"
         offset="0"
         id="stop5605" />
      <stop
         style="stop-color:#000000;stop-opacity:0;"
         offset="1"
         id="stop5607" />
    </linearGradient>
    <linearGradient
       id="linearGradient4151">
      <stop
         style="stop-color:#502d16;stop-opacity:1;"
         offset="0"
         id="stop4153" />
      <stop
         style="stop-color:#311507;stop-opacity:1;"
         offset="1"
         id="stop4155" />
    </linearGradient>
    <linearGradient
       inkscape:collect="always"
       xlink:href="#linearGradient4151"
       id="linearGradient4157"
       x1="236"
       y1="184.36218"
       x2="642"
       y2="952.36218"
       gradientUnits="userSpaceOnUse"
       gradientTransform="translate(-10,0)" />
    <radialGradient
       inkscape:collect="always"
       xlink:href="#linearGradient5603"
       id="radialGradient5609"
       cx="-449"
       cy="325"
       fx="-449"
       fy="325"
       r="59"
       gradientTransform="matrix(1,0,0,0.59322034,0,132.20339)"
       gradientUnits="userSpaceOnUse" />
    <radialGradient
       inkscape:collect="always"
       xlink:href="#linearGradient5603-1"
       id="radialGradient5609-8"
       cx="-449"
       cy="325"
       fx="-449"
       fy="325"
       r="59"
       gradientTransform="matrix(1,0,0,0.59322034,0,132.20339)"
       gradientUnits="userSpaceOnUse" />
    <linearGradient
       id="linearGradient5603-1">
      <stop
         style="stop-color:#000000;stop-opacity:0.45539907;"
         offset="0"
         id="stop5605-0" />
      <stop
         style="stop-color:#000000;stop-opacity:0;"
         offset="1"
         id="stop5607-7" />
    </linearGradient>
    <radialGradient
       r="59"
       fy="325"
       fx="-449"
       cy="325"
       cx="-449"
       gradientTransform="matrix(1,0,0,0.59322034,0,132.20339)"
       gradientUnits="userSpaceOnUse"
       id="radialGradient5626"
       xlink:href="#linearGradient5603-1"
       inkscape:collect="always" />
    <radialGradient
       inkscape:collect="always"
       xlink:href="#linearGradient5603-10"
       id="radialGradient5609-0"
       cx="-449"
       cy="325"
       fx="-449"
       fy="325"
       r="59"
       gradientTransform="matrix(1,0,0,0.59322034,0,132.20339)"
       gradientUnits="userSpaceOnUse" />
    <linearGradient
       id="linearGradient5603-10">
      <stop
         style="stop-color:#000000;stop-opacity:0.45539907;"
         offset="0"
         id="stop5605-2" />
      <stop
         style="stop-color:#000000;stop-opacity:0;"
         offset="1"
         id="stop5607-5" />
    </linearGradient>
    <radialGradient
       r="59"
       fy="325"
       fx="-449"
       cy="325"
       cx="-449"
       gradientTransform="matrix(1,0,0,0.59322034,0,132.20339)"
       gradientUnits="userSpaceOnUse"
       id="radialGradient5626-1"
       xlink:href="#linearGradient5603-10"
       inkscape:collect="always" />
    <radialGradient
       r="59"
       fy="325"
       fx="-449"
       cy="325"
       cx="-449"
       gradientTransform="matrix(1,0,0,0.59322034,0,132.20339)"
       gradientUnits="userSpaceOnUse"
       id="radialGradient5626-1-7"
       xlink:href="#linearGradient5603-10-1"
       inkscape:collect="always" />
    <linearGradient
       id="linearGradient5603-10-1">
      <stop
         style="stop-color:#000000;stop-opacity:0.45539907;"
         offset="0"
         id="stop5605-2-3" />
      <stop
         style="stop-color:#000000;stop-opacity:0;"
         offset="1"
         id="stop5607-5-1" />
    </linearGradient>
    <radialGradient
       r="59"
       fy="325"
       fx="-449"
       cy="325"
       cx="-449"
       gradientTransform="matrix(1,0,0,0.59322034,0,132.20339)"
       gradientUnits="userSpaceOnUse"
       id="radialGradient5677"
       xlink:href="#linearGradient5603-10-1"
       inkscape:collect="always" />
    <radialGradient
       r="59"
       fy="325"
       fx="-449"
       cy="325"
       cx="-449"
       gradientTransform="matrix(1,0,0,0.59322034,0,132.20339)"
       gradientUnits="userSpaceOnUse"
       id="radialGradient5626-1-0"
       xlink:href="#linearGradient5603-10-6"
       inkscape:collect="always" />
    <linearGradient
       id="linearGradient5603-10-6">
      <stop
         style="stop-color:#000000;stop-opacity:0.45539907;"
         offset="0"
         id="stop5605-2-8" />
      <stop
         style="stop-color:#000000;stop-opacity:0;"
         offset="1"
         id="stop5607-5-7" />
    </linearGradient>
    <radialGradient
       r="59"
       fy="325"
       fx="-449"
       cy="325"
       cx="-449"
       gradientTransform="matrix(1,0,0,0.59322034,0,132.20339)"
       gradientUnits="userSpaceOnUse"
       id="radialGradient5677-4"
       xlink:href="#linearGradient5603-10-6"
       inkscape:collect="always" />
    <radialGradient
       r="59"
       fy="325"
       fx="-449"
       cy="325"
       cx="-449"
       gradientTransform="matrix(1,0,0,0.59322034,0,132.20339)"
       gradientUnits="userSpaceOnUse"
       id="radialGradient5626-1-2"
       xlink:href="#linearGradient5603-10-4"
       inkscape:collect="always" />
    <linearGradient
       id="linearGradient5603-10-4">
      <stop
         style="stop-color:#ffffff;stop-opacity:0.45539907;"
         offset="0"
         id="stop5605-2-4" />
      <stop
         style="stop-color:#ffffff;stop-opacity:0;"
         offset="1"
         id="stop5607-5-5" />
    </linearGradient>
    <radialGradient
       r="59"
       fy="325"
       fx="-449"
       cy="325"
       cx="-449"
       gradientTransform="matrix(1,0,0,0.59322034,0,132.20339)"
       gradientUnits="userSpaceOnUse"
       id="radialGradient5677-9"
       xlink:href="#linearGradient5603-10-4"
       inkscape:collect="always" />
  </defs>
  <sodipodi:namedview
     id="base"
     pagecolor="#ffffff"
     bordercolor="#666666"
     borderopacity="1.0"
     inkscape:pageopacity="0.0"
     inkscape:pageshadow="2"
     inkscape:zoom="0.5"
     inkscape:cx="658.28414"
     inkscape:cy="485.49025"
     inkscape:document-units="px"
     inkscape:current-layer="layer1"
     showgrid="false"
     inkscape:window-width="1600"
     inkscape:window-height="851"
     inkscape:window-x="0"
     inkscape:window-y="25"
     inkscape:window-maximized="1" />
  <metadata
     id="metadata7">
    <rdf:RDF>
      <cc:Work
         rdf:about="">
        <dc:format>image/svg+xml</dc:format>
        <dc:type
           rdf:resource="http://purl.org/dc/dcmitype/StillImage" />
        <dc:title />
      </cc:Work>
    </rdf:RDF>
  </metadata>
  <g
     inkscape:label="Ebene 1"
     inkscape:groupmode="layer"
     id="layer1"
     transform="translate(0,-52.362183)">
    <path
       style="fill:url(#linearGradient4157);fill-opacity:1;stroke:#3a1b00;stroke-width:16.89999962;stroke-linecap:butt;stroke-linejoin:round;stroke-miterlimit:4;stroke-opacity:1;stroke-dasharray:none;marker-start:none"
       d="m 630.92472,183.18582 c -42.93549,0.14124 -58.31119,1.90142 -73.97504,5.86523 -14.74345,3.73088 -51.91984,5.80475 -139.15219,7.91804 -79.45656,1.92489 -125.70132,4.45855 -139.22557,7.55146 -17.18203,3.92941 -24.7488,3.96273 -50.22091,0.0731 -50.45719,-7.70447 -101.06417,0.56722 -127.71509,20.89484 -6.1252,4.67195 -15.187337,15.41268 -20.161672,23.90076 l -9.017765,15.39618 5.571955,69.13624 c 11.3109,140.33011 13.574552,214.7896 8.577872,280.21075 -6.765901,88.58556 -5.34492,170.55854 3.519128,204.40278 7.381302,28.18291 19.020822,48.31662 34.824722,60.04516 9.07248,6.73295 14.72899,7.14699 139.07894,9.45766 71.29733,1.32485 134.97329,2.92297 141.42501,3.59244 34.20736,3.54958 104.04524,1.92907 127.34848,-2.93261 33.21165,-6.92886 97.67248,-7.45846 191.93921,-1.61294 84.76227,5.25618 124.32163,2.8714 168.84488,-10.26412 l 23.97413,-7.11157 6.15842,-20.52826 c 8.34454,-27.88784 7.65634,-86.30651 -1.68624,-150.36948 -8.38464,-57.49289 -9.22069,-109.3482 -2.27278,-138.12583 5.59565,-23.17613 10.23227,-54.6279 13.78332,-88.85802 -1.87444,0.46025 -5.68329,4.08686 -9.09112,8.79782 -13.13242,18.15425 -28.12087,22.62781 -53.44677,15.98272 -11.41363,-2.99477 -16.089,-2.35881 -27.63988,3.66575 -9.06833,4.72993 -17.57486,6.73597 -24.34066,5.86522 -12.68983,-1.63311 -34.48467,-15.95072 -40.24999,-26.46679 -2.72646,-4.97321 -6.28178,-7.32567 -9.89755,-6.59836 -3.09762,0.62309 -12.66119,1.73936 -21.26145,2.4927 -13.35828,1.17019 -17.29304,-0.16422 -27.19986,-8.94444 -14.42775,-12.78676 -19.36397,-21.58876 -21.40808,-38.41717 -1.55216,-12.77871 -2.00791,-13.39326 -14.44311,-19.94173 -25.82322,-13.59868 -35.51465,-34.57402 -28.73958,-61.87803 4.16721,-16.79367 3.93756,-17.76994 -4.32555,-25.80695 -17.01354,-16.54796 -16.72405,-51.35122 0.51316,-65.83705 6.16927,-5.18462 7.4161,-9.42233 6.30518,-20.89484 -1.62456,-16.7766 6.43231,-37.39117 16.86252,-43.10933 4.24827,-2.32908 6.0341,-4.61046 5.05872,-7.18489 -18.78718,-0.22664 -35.33266,-0.4093 -48.31479,-0.36658 z m 104.20121,86.16342 c 0,0.36663 -0.73707,0.0239 -1.09982,0.0731 -6.8532,0.93143 -10.6662,10.6065 -5.7919,14.73636 5.10919,4.32877 14.91715,-3.44623 12.75687,-10.1175 -0.82898,-2.56002 -5.86515,-7.25767 -5.86515,-4.69217 z m -3.99595,70.65816 c -2.33653,0.13771 -4.64429,1.11913 -6.30506,3.07923 -4.22876,4.99121 1.39017,17.24498 7.55152,16.49593 6.06042,-0.73677 8.5142,-3.76472 8.94436,-10.77734 0.33544,-5.46847 -5.05019,-9.10105 -10.19082,-8.79782 z m 64.37003,66.91728 c -0.61836,0.005 -1.23183,0.14358 -1.90613,0.51321 -5.34261,2.92895 -5.66794,9.10021 -0.65992,13.34336 5.43366,4.60368 10.09087,-1.33503 7.18499,-9.1644 -1.16662,-3.14344 -2.76388,-4.70859 -4.61894,-4.69217 z"
       id="path3088-6-3-6"
       inkscape:connector-curvature="0"
       sodipodi:nodetypes="csssssccsssssssscccsscssssssssssssssscscssscsscssccccccc" />
    <path
       sodipodi:type="arc"
       style="fill:url(#radialGradient5609);fill-opacity:1;stroke:none"
       id="path4159"
       sodipodi:cx="-449"
       sodipodi:cy="325"
       sodipodi:rx="59"
       sodipodi:ry="35"
       d="m -390,325 c 0,19.32997 -26.4152,35 -59,35 -32.5848,0 -59,-15.67003 -59,-35 0,-19.32997 26.4152,-35 59,-35 32.5848,0 59,15.67003 59,35 z"
       transform="matrix(5.2899395,0,0,8.2968523,2711.2892,-2059.725)" />
    <path
       sodipodi:type="arc"
       style="fill:url(#radialGradient5626);fill-opacity:1;stroke:none"
       id="path4159-6"
       sodipodi:cx="-449"
       sodipodi:cy="325"
       sodipodi:rx="59"
       sodipodi:ry="35"
       d="m -390,325 c 0,19.32997 -26.4152,35 -59,35 -32.5848,0 -59,-15.67003 -59,-35 0,-19.32997 26.4152,-35 59,-35 32.5848,0 59,15.67003 59,35 z"
       transform="matrix(3.4682712,0,0,5.4397094,1997.2537,-1373.5434)" />
    <path
       sodipodi:type="arc"
       style="fill:url(#radialGradient5677);fill-opacity:1;stroke:none"
       id="path4159-9-2"
       sodipodi:cx="-449"
       sodipodi:cy="325"
       sodipodi:rx="59"
       sodipodi:ry="35"
       d="m -390,325 c 0,19.32997 -26.4152,35 -59,35 -32.5848,0 -59,-15.67003 -59,-35 0,-19.32997 26.4152,-35 59,-35 32.5848,0 59,15.67003 59,35 z"
       transform="matrix(-2.8895584,0,0,-4.6114522,-589.0094,2180.8761)"
       inkscape:transform-center-x="491.71153"
       inkscape:transform-center-y="-310.42189" />
    <g
       id="g3118"
       style="fill:#000000"
       transform="matrix(0.99107403,0,0,0.99107403,-411.1194,-909.98944)">
      <path
         transform="translate(0,52.362183)"
         inkscape:connector-curvature="0"
         d="m 1527.7939,1474.3568 c -1.3306,-4.0619 -4.3546,-7.1475 -6.3948,-10.8095 -2.3961,-4.88 -3.6733,-10.1591 -4.8486,-15.4348 -3.7113,-18.8871 -3.1706,-38.225 -2.5089,-57.3545 1.5116,-31.8921 4.3871,-63.6943 7.7936,-95.4328 4.0872,-34.9336 8.7713,-69.7909 12.7696,-104.7351 2.2681,-21.8122 5.0513,-43.6741 4.0125,-65.6371 -0.4579,-8.7641 -3.3509,-17.0181 -6.0632,-25.2684 -1.4974,-4.662 -2.849,-9.3647 -3.9755,-14.1287 -0.2031,-1.0676 -0.6486,-2.2899 -0.3918,-3.3939 3.3792,-2.7651 6.6265,-5.6998 10.1377,-8.2953 0.2533,-0.1872 0.6248,0.082 0.9387,0.1078 2.6011,0.2174 5.2414,0.1148 7.846,0.077 12.4274,-0.09 24.8442,0.5341 37.2528,1.1361 17.4678,0.9381 34.9469,1.7215 52.4412,1.37 11.7124,-0.3119 23.2533,-2.4032 34.6652,-4.9082 6.6066,-1.6664 13.2625,-2.6536 20.0709,-2.4217 1.7477,-0.151 5.9036,-0.3922 4.9923,2.5154 -2.5932,1.6186 -7.9253,10.2886 -13.6151,11.1123 -4.5507,-1.5807 4.8524,-12.6797 10.321,-8.078 5.8134,4.7714 11.4762,9.725 16.9799,14.8513 12.774,12.9318 23.5835,27.6368 34.9027,41.821 12.5945,15.8566 24.6829,32.1046 37.3228,47.9247 7.1702,9.1662 15.2236,17.5621 23.0924,26.1136 3.0774,3.2026 5.8859,6.649 8.5146,10.225 0.436,0.6128 1.2341,1.0252 1.5156,1.736 1.019,1.3251 0.2872,4.4956 0.1935,6.1396 -1.0385,16.3272 -1.2462,32.693 -1.4931,49.0467 -0.3474,29.9563 -0.4046,59.9149 -0.3621,89.8728 0.095,29.4337 0.9223,58.8778 3.2133,88.2255 1.324,15.1912 2.7715,30.3715 4.0908,45.5631 0.4431,1.9352 -0.079,4.2738 0.6986,6.146 -15.8045,13.4521 -7.7817,11.6457 -15.6636,9.0159 -5.8299,-2.1145 -11.9062,-3.3668 -17.995,-4.4616 -17.5552,-2.6358 -35.3825,-2.9633 -53.0967,-2.4928 -26.5209,1.1695 -52.7798,5.2524 -79.0982,8.467 -27.5223,3.3617 -55.2488,4.4904 -82.9559,4.2841 -14.0086,-0.2091 -28.0058,-1.0109 -41.9535,-2.3195 -2.4166,-0.6316 -5.4899,0.01 -7.7587,-1.2733 -2.3718,-5.0131 2.3311,-0.3545 -1.0832,-2.5096 -2.4379,-1.1971 -5.1998,-1.4138 -7.8239,-2.0164 -0.7113,-0.076 -2.7653,0.3504 -2.2583,-0.9316 1.5864,-2.4765 3.5363,-4.7023 5.3065,-7.0504 0,0 0.5434,-0.5871 0.5434,-0.5871 l 0,0 c 2.1979,-2.3546 4.2292,-4.935 6.7804,-6.9168 1.253,-0.7592 2.3115,-0.6826 3.4627,0.2736 2.4362,1.0175 4.2159,2.778 6.3725,4.259 0.3525,0.2143 1.2159,0.7137 1.5745,1.0146 0.4053,0.34 0.9161,1.5404 1.1676,1.075 1.0995,-2.0351 -1.6175,-1.5857 -0.349,-2.1253 2.6741,-0.2713 5.3576,0.6587 8.0018,0.8371 13.5082,1.7888 27.0959,2.9515 40.7146,3.4506 27.4099,0.6506 54.8385,-0.013 82.0581,-3.6308 26.1289,-3.3069 52.2807,-7.1969 78.6602,-7.6389 17.74,0 35.5051,0.208 53.0721,2.9998 6.2592,0.9965 12.4693,2.1742 18.4492,4.3322 9.4302,2.9684 0.64,7.6095 -8.4916,14.4306 0.6718,-2.0918 -0.052,-4.5654 0.1689,-6.7054 -0.3476,-15.6748 -1.2092,-31.3303 -2.4341,-46.9613 -1.9592,-29.3019 -4.0652,-58.6029 -3.6169,-87.9993 -0.1361,-29.7976 -0.074,-59.5957 -0.2175,-89.3934 -0.066,-15.9068 -0.2012,-31.8142 -0.117,-47.7211 0,-0.5723 -0.3729,-4.9775 0.2534,-4.7914 -0.7184,-0.5072 -1.0056,-1.4057 -1.4521,-2.1364 -2.4291,-3.6841 -4.7481,-7.4281 -7.7399,-10.714 -7.6058,-8.8596 -15.2719,-17.6755 -22.3641,-26.9588 -12.3834,-16.064 -24.2805,-32.4959 -36.6907,-48.5399 -11.0835,-14.3006 -22.1918,-28.6541 -34.762,-41.6983 -5.2946,-5.3067 -10.8022,-10.3519 -16.3971,-15.3332 -4.6511,-4.1138 4.8528,-7.7238 7.0885,-11.5106 4.6759,-2.285 9.8206,-6.5771 -5.9559,7.4658 0.3716,-0.1053 0.7881,-0.026 1.1459,-0.172 0.6374,-0.2591 -2.3829,-1.9361 -2.4417,-1.8311 -6.6529,-0.6656 -13.2505,1.1773 -19.7172,2.5009 -11.5578,2.5467 -23.1278,5.2082 -35.058,5.0131 -17.4691,0.094 -34.9111,-0.8025 -52.3596,-1.5628 -12.5847,-0.4508 -25.1735,-0.7574 -37.7664,-0.4471 -2.2437,0 -4.5078,0.092 -6.7508,0 -0.7894,-0.034 -2.8588,0.3345 -2.3547,-0.2739 2.5753,-3.1081 5.6052,-5.8095 8.4078,-8.7143 -0.9791,0.6717 -0.9666,1.8579 -0.7537,2.9621 1.2871,4.6983 2.4925,9.4196 3.9157,14.0801 2.6885,8.4921 5.5446,16.989 5.7283,26.0044 0.4448,22.4154 -2.9481,44.6521 -5.2599,66.8986 -4.0116,34.753 -8.3693,69.4653 -12.1951,104.2392 -3.0805,31.3605 -5.9547,62.7794 -6.5941,94.3023 -0.1591,18.6127 -0.3566,37.4642 3.8663,55.712 1.369,5.0952 2.9938,10.0595 5.187,14.8608 1.2205,4.6428 1.3077,9.5252 2.902,14.086 0,0 -7.4139,6.7723 -7.4139,6.7723 z"
         id="path3100"
         style="fill:#000000;fill-opacity:1;stroke:none" />
      <path
         transform="translate(0,52.362183)"
         inkscape:connector-curvature="0"
         d="m 1701.3049,1076.4064 c 0.03,11.4707 -0.5374,22.9326 -1.1915,34.3812 -1.162,20.2766 -3.5693,40.4541 -6.0667,60.6013 -1.9468,16.2565 -4.3511,32.4532 -6.7724,48.6443 -0.4008,3.8424 -1.2849,7.5356 -2.3627,11.212 0.042,0.09 0.2051,0.2095 0.1262,0.2698 -25.3556,19.3848 -14.0821,9.7224 -0.4037,-2.7904 7.5376,-0.035 15.0638,0.4344 22.5859,0.8577 20.5129,1.1811 41.0436,2.0883 61.5404,3.5223 5.663,0.6544 11.5825,1.1977 17.1853,2.3574 2.2687,0.4695 4.4315,1.4291 6.7255,1.7538 2.2107,0.3129 4.4645,0.097 6.6967,0.1461 0,0 -0.5209,0.6072 -0.5209,0.6072 l 0,0 c -2.2319,-0.048 -4.4728,-0.3505 -6.6958,-0.1453 -3.2429,0.2994 -6.4106,1.1573 -9.6294,1.6525 -9.4051,1.4469 -11.7849,1.5695 -21.3942,2.5647 -21.762,1.3456 -43.5705,1.7369 -65.3635,0.8576 -7.7699,-0.1242 -15.54,-0.227 -23.3053,0.1481 15.0308,-15.6376 19.6425,-18.8985 -2.9053,0.064 -0.068,0.057 0.1232,0.1276 0.1847,0.1914 0.4345,-3.3712 0.9928,-6.8649 1.7292,-10.2291 3.1939,-16.4398 5.9345,-32.9637 8.0447,-49.5801 2.5237,-20.0307 4.992,-40.0882 5.8935,-60.2724 0.5002,-11.3188 0.9433,-22.6446 0.8684,-33.977 0,0 15.0309,-12.8376 15.0309,-12.8376 z"
         id="path3104"
         style="fill:#000000;fill-opacity:1;stroke:none" />
      <path
         transform="translate(0,52.362183)"
         inkscape:connector-curvature="0"
         d="m 1579.1899,1339.2669 c -2.3344,12.1378 -2.322,24.4213 -0.7496,36.6308 2.2751,11.1233 7.0081,22.0497 16.0678,29.3371 1.5402,1.239 3.2931,2.1874 4.9397,3.281 6.1423,2.9272 12.5477,3.5334 18.1997,-0.7461 0.2476,-0.1874 -1.0377,0.4413 -0.9186,0.1545 0.9503,-2.2884 2.3758,-4.3492 3.5637,-6.5238 5.132,-12.5983 5.6535,-26.3231 4.8186,-39.7371 -0.1592,-0.8812 -0.3184,-1.7623 -0.4776,-2.6434 0,0 0.5989,-0.5304 0.5989,-0.5304 l 0,0 c 0.1607,0.8828 0.3213,1.7656 0.482,2.6485 1.6555,12.682 0.5507,25.5294 -2.4593,37.9481 -3.0386,8.137 -1.6864,6.5252 -10.1526,14.6739 -6.0379,5.8116 -13.371,5.2643 -20.3519,1.7115 -1.6656,-1.1532 -3.4378,-2.1659 -4.9968,-3.4595 -9.0928,-7.5452 -14.1779,-18.4122 -16.5311,-29.7806 -1.698,-12.039 -1.7657,-24.113 -0.2208,-36.1914 0,0 8.1879,-6.7731 8.1879,-6.7731 z"
         id="path3106"
         style="fill:#000000;fill-opacity:1;stroke:none" />
      <path
         transform="translate(0,52.362183)"
         inkscape:connector-curvature="0"
         d="m 1643.5689,1325.9161 c 4.1746,13.8975 7.7134,27.9542 11.0706,42.0699 2.5952,12.4353 7.1996,24.7669 5.9639,37.6251 -1.2991,3.1952 -1.4441,1.9694 -1.1478,3.5206 0,0 -0.5985,0.5308 -0.5985,0.5308 l 0,0 c -0.2111,-1.1306 0.072,-0.4601 -2.0938,-0.6167 -4.2519,-4.8788 -5.1804,-11.4992 -6.5069,-17.6478 -2.2591,-10.4719 -1.1385,-5.3891 -3.5988,-16.2667 -3.3508,-14.157 -6.5406,-28.3729 -10.711,-42.3122 0,0 7.6223,-6.903 7.6223,-6.903 z"
         id="path3108"
         style="fill:#000000;fill-opacity:1;stroke:none" />
      <path
         transform="translate(0,52.362183)"
         inkscape:connector-curvature="0"
         d="m 1635.457,1309.9647 c 12.9038,-2.8214 25.6929,-6.1324 38.5358,-9.2131 5.4868,-0.7502 11.7913,-3.429 17.4538,-1.9224 8.6069,2.2901 -3.3018,1.6288 6.043,1.7077 0,0 -0.5191,0.6088 -0.5191,0.6088 l 0,0 c -6.0373,0.1405 -1.5459,-0.3765 -9.7065,2.7641 -6.749,2.5974 -13.7525,4.4423 -20.7865,6.0758 -13.0434,3.1742 -26.0302,6.5688 -39.0536,9.8218 0,0 8.0331,-9.8427 8.0331,-9.8427 z"
         id="path3110"
         style="fill:#000000;fill-opacity:1;stroke:none" />
      <path
         transform="translate(0,52.362183)"
         inkscape:connector-curvature="0"
         d="m 1642.3165,1357.4533 c 9.5495,-2.842 19.4094,-4.4905 29.1908,-6.3171 4.6743,-0.7014 9.4735,-1.9977 14.2545,-1.5357 1.9444,0.1879 3.807,0.8782 5.7116,1.3124 0,0 -0.5054,0.6201 -0.5054,0.6201 l 0,0 c -9.0632,4.2926 -18.1101,8.7097 -28.1584,10.1786 -9.7587,1.8458 -19.5228,3.7295 -29.0878,6.4356 0,0 8.5947,-10.6939 8.5947,-10.6939 z"
         id="path3112"
         style="fill:#000000;fill-opacity:1;stroke:none" />
      <path
         transform="translate(0,52.362183)"
         inkscape:connector-curvature="0"
         d="m 1713.2847,1302.666 c -2.2818,12.4515 -3.1103,25.0961 -3.7891,37.7166 -0.4172,11.2936 -0.2312,22.5868 -1.4952,33.8315 -0.3451,2.9174 -1.0767,5.6016 -2.516,8.1635 -1.651,2.9389 -1.0084,1.0618 -1.5527,2.8777 0,0 -0.6178,0.5082 -0.6178,0.5082 l 0,0 c 0.01,-0.2072 0.2055,-0.5198 0.025,-0.6216 -0.3217,-0.1813 -0.7425,0.065 -1.1079,0.011 -1.9419,-0.2846 -2.1349,-2.0221 -2.7372,-3.6318 -2.2219,-10.4863 -1.451,-21.1992 -1.0156,-31.835 0.7359,-12.6273 1.7911,-25.2481 3.5916,-37.7727 0,0 11.2151,-9.2477 11.2151,-9.2477 z"
         id="path3114"
         style="fill:#000000;fill-opacity:1;stroke:none" />
      <path
         transform="translate(0,52.362183)"
         inkscape:connector-curvature="0"
         d="m 1718.5474,1297.5687 c 6.9412,5.5762 12.4144,12.6286 17.4788,19.8825 2.8662,3.8871 5.1194,8.0102 6.7572,12.5112 0.5609,1.6094 0.049,-0.1957 -0.2209,0.035 -11.5348,9.8934 -11.0085,12.4557 -8.2835,6.9315 1.5516,-2.7507 2.5037,-5.7166 3.2758,-8.7607 0.9377,-4.5934 2.2559,-9.0559 4.0175,-13.3973 1.906,-4.7976 4.7637,-9.0685 7.7422,-13.2476 1.6712,-2.2115 3.4338,-4.3697 5.3395,-6.3855 4.6028,-5.1774 7.5007,-8.8725 9.9235,-3.4584 0.8005,2.1247 1.5173,4.2778 2.2257,6.4345 1.5397,4.8937 4.2079,9.3273 5.6837,14.2427 0.5491,1.8287 0.9408,3.7011 1.4111,5.5516 4.3329,17.8393 6.0775,36.1479 6.889,54.4441 0.4268,10.9756 -0.034,21.9374 -2.09,32.7453 -0.6399,3.3639 -1.5791,6.664 -2.3687,9.996 0,0 -0.6081,0.5198 -0.6081,0.5198 l 0,0 c -0.8162,-1.9556 -1.8073,-3.8471 -2.4486,-5.8669 -2.8042,-8.8334 -3.1815,-18.1645 -4.1336,-27.3046 -1.7341,-18.1436 -3.3974,-36.3207 -6.7581,-54.2543 -1.467,-7.7363 -2.0944,-15.491 -3.1948,-23.2667 -0.3261,-2.352 -0.6272,-4.7421 -1.3787,-7.0023 -0.2185,-0.6446 -0.4455,-1.3629 -0.914,-1.8827 -0.1366,-0.1516 -0.6063,-0.2294 -0.4752,-0.3857 0.5436,-0.6488 8.4975,-8.7883 5.8337,-6.0618 -1.8209,1.9077 -3.6536,3.816 -5.1136,6.0268 -2.2992,3.5308 -4.1319,7.3734 -5.6557,11.2974 -1.4572,4.1239 -2.6335,8.3143 -3.3506,12.6363 -0.6675,3.0918 -1.4113,6.1584 -2.9876,8.9366 -2.6282,5.2267 -7.572,16.4489 -13.1131,11.7165 -3.1306,-3.4483 -5.0869,-7.6678 -7.6181,-11.559 -4.8588,-7.2365 -10.243,-14.0965 -16.9077,-19.7807 0,0 11.0429,-11.294 11.0429,-11.294 z"
         id="path3116"
         style="fill:#000000;fill-opacity:1;stroke:none" />
    </g>
    <g
       id="g3156"
       style="fill:#ffffff"
       transform="matrix(1.3835889,0,0,1.3835889,1814.8324,101.04233)">
      <path
         transform="translate(0,52.362183)"
         inkscape:connector-curvature="0"
         d="m -1155.7381,387.73984 c 3.3964,7.04401 8.1069,13.18096 14.1222,18.14682 5.4391,3.68666 12.0487,6.02796 18.6809,4.5675 1.4042,-0.30921 2.7243,-0.92088 4.0864,-1.38133 -1.0975,2.65063 10.2922,-8.27083 7.7602,-6.15276 -3.2459,2.71517 -5.5482,6.88665 -9.4855,8.43775 -2.1763,0.8574 2.4698,-3.98212 3.5028,-6.08085 2.8656,-5.82192 3.592,-8.9738 5.5674,-15.21499 3.5078,-13.63155 5.1506,-27.822 3.3401,-41.84892 -0.3181,-2.46416 -0.8657,-4.89321 -1.2985,-7.33982 -2.5339,-11.49175 -8.1275,-21.81105 -14.3623,-31.65993 -0.8505,-2.56114 -4.6417,-5.39886 -5.0896,-8.12834 -0.1249,-0.76079 0.3575,-1.87819 0.6033,-2.57409 0.6728,-1.28928 0.2249,-0.63943 1.4455,-1.87528 0,0 6.8162,-6.83117 6.8162,-6.83117 l 0,0 c 1.3551,-1.07786 0.6747,-0.7008 1.9734,-1.24544 0.6095,-0.14243 1.714,-0.50308 2.3446,-0.2019 1.9373,0.92539 4.1141,6.44372 5.4699,7.9342 5.9449,10.31792 11.6826,20.88315 14.3242,32.60749 0.4566,2.49716 1.0259,4.97632 1.3699,7.49147 1.9268,14.0861 0.504,28.42647 -2.6993,42.20907 -1.5765,5.61999 -4.4303,16.89034 -8.1934,21.46063 -5.2574,6.38502 -11.1209,12.25016 -16.8857,18.18099 -3.3487,3.44511 -4.4002,3.59055 -8.4845,5.69735 -1.4582,0.36532 -2.8878,0.87458 -4.3747,1.09597 -7.127,1.06113 -14.0665,-1.4455 -19.829,-5.48457 -6.1225,-5.14879 -10.9804,-11.35279 -15.0535,-18.2381 0,0 14.349,-13.57175 14.349,-13.57175 z"
         id="path3148"
         style="fill:#ffffff;fill-opacity:1;stroke:none" />
      <path
         transform="translate(0,52.362183)"
         inkscape:connector-curvature="0"
         d="m -1064.3517,297.72444 c 14.6943,1.67055 29.4773,0.88477 44.1584,-0.42726 11.0229,-1.08426 21.96335,-2.77731 32.71201,-5.44811 6.31741,-1.63353 6.59429,-4.37717 -3.31922,7.00562 0,0 0.50984,-0.6165 0.50984,-0.6165 l 0,0 c -5.28103,7.5672 -3.33701,8.20823 -9.50998,8.57471 -10.43545,1.13449 -20.85335,2.41852 -31.29755,3.47259 -14.9026,1.18894 -29.8716,1.85724 -44.8039,0.70243 0,0 11.5504,-13.26348 11.5504,-13.26348 z"
         id="path3150"
         style="fill:#ffffff;fill-opacity:1;stroke:none" />
      <path
         transform="translate(0,52.362183)"
         inkscape:connector-curvature="0"
         d="m -1048.7398,340.2587 c 13.0073,0.24173 25.9279,-1.32562 38.7711,-3.198 12.70326,-2.12719 25.30577,-4.92548 37.64714,-8.61997 0.7397,-0.19356 7.79288,-2.71521 7.79326,-3.25633 -9.28995,10.76846 -8.08041,15.17448 -9.29813,10.07117 0,0 0.50915,-0.61706 0.50915,-0.61706 l 0,0 c 4.90326,-3.05806 1.5633,-1.20403 -6.1231,9.68722 -1.90807,-0.55957 -4.32873,0.58083 -6.22103,0.53643 -12.28415,2.44117 -24.43999,5.55673 -36.85439,7.32774 -12.8615,1.87749 -25.853,3.6132 -38.8799,2.72541 0,0 12.6559,-14.65661 12.6559,-14.65661 z"
         id="path3152"
         style="fill:#ffffff;fill-opacity:1;stroke:none" />
      <path
         transform="translate(0,52.362183)"
         inkscape:connector-curvature="0"
         d="m -939.07737,291.9328 c 9.39728,6.77075 17.52664,14.99556 25.23095,23.58869 8.25952,9.45109 15.72275,19.55434 23.28567,29.56038 2.27138,2.72892 4.21317,5.75946 6.65647,8.34698 5.03303,5.9837 -15.22832,13.49014 -16.88405,14.74708 -0.38651,0.29342 0.18797,-0.9539 0.33019,-1.41786 0.18758,-0.61197 0.4383,-1.20277 0.65745,-1.80415 3.15297,-7.24947 6.57227,-14.38087 9.83004,-21.58421 3.83226,-8.65206 7.58443,-17.33697 11.74252,-25.83905 2.11576,-4.38501 4.63624,-8.5496 7.12587,-12.72674 1.66058,-2.84577 2.86301,-5.92118 4.3816,-8.8382 4.11715,-7.04607 12.04307,-22.43027 18.90681,-15.68147 1.34797,2.89512 2.13603,6.06265 3.24972,9.07955 4.23391,10.70471 7.34815,21.77086 10.13387,32.92413 4.84828,21.16607 8.32956,42.60935 12.61149,63.89276 3.34218,16.11689 7.54737,32.07307 13.73216,47.34328 0.58786,1.49549 3.27741,8.09025 2.14584,9.74677 -0.41772,0.61149 -1.10851,0.98231 -1.65801,1.47876 -1.43024,1.29216 -2.8541,2.59136 -4.28116,3.88704 0,0 0.62106,-0.50427 0.62106,-0.50427 l 0,0 c -0.37061,0.47385 -5.35207,9.31146 -8.96308,7.51016 -1.70317,-0.84961 -3.91214,-5.49506 -4.38316,-6.93974 -5.61268,-15.77568 -9.73326,-32.02225 -13.07407,-48.42369 -4.23713,-21.20072 -7.77099,-42.54796 -12.79869,-63.58434 -2.81999,-11.06717 -5.81172,-22.10897 -9.99708,-32.75318 -0.98794,-2.76345 -2.1386,-5.62212 -2.52004,-8.54184 -0.32489,5.64275 19.50274,-21.59764 13.51438,-12.74962 -1.53292,2.76465 -2.64157,5.73494 -3.99383,8.58771 -2.28668,4.38443 -5.25649,8.38748 -7.43344,12.83966 -4.33555,8.44647 -8.21124,17.10875 -11.91709,25.84891 -3.0698,6.99952 -6.22125,13.96376 -9.23922,20.98558 -3.06667,7.32121 -15.70676,25.2288 -18.76265,18.75802 -1.42516,-3.31339 -3.73889,-6.18915 -5.55032,-9.28118 -7.01486,-10.33683 -14.37937,-20.46459 -22.6245,-29.86368 -7.66991,-8.41119 -15.64343,-16.60526 -25.14584,-22.98345 0,0 15.07014,-15.60879 15.07014,-15.60879 z"
         id="path3154"
         style="fill:#ffffff;fill-opacity:1;stroke:none" />
    </g>
  </g>
</svg>
